<svg xmlns="http://www.w3.org/2000/svg" viewBox="0 0 1024 768">
    <g font-family="Montserrat Light Alt1" font-size="72" font-weight="300" style="line-height:1;font-variant-ligatures:none;text-align:center" text-anchor="middle">
        <path fill="#3763d7" d="M318.06519 0h3.6l-.072-50.4h-3.024l-22.536 38.952-22.536-38.952h-3.096V0h3.6v-42.984l21.096 36.288h1.8l21.096-36.432z" style="line-height:1;font-variant-ligatures:none;text-align:center" transform="matrix(1.4 0 0 1.4 -246.1595 419.28)"/>
        <path fill="#39ceaa" d="M729.95581-1.512c3.312 1.296 6.84 1.872 10.584 1.872 3.96 0 7.344-.576 10.08-1.8 2.736-1.152 4.752-2.808 6.048-4.824 1.296-2.016 2.016-4.248 2.016-6.696 0-2.952-.792-5.328-2.376-7.056-1.584-1.728-3.456-3.096-5.616-3.96-2.232-.864-5.184-1.728-8.856-2.664-3.312-.792-5.976-1.584-7.848-2.304-1.944-.72-3.528-1.728-4.824-3.096-1.296-1.296-1.944-3.096-1.944-5.4 0-2.952 1.152-5.4 3.6-7.272 2.376-1.872 5.904-2.808 10.584-2.808 2.304 0 4.68.36 7.128 1.08 2.448.72 4.68 1.8 6.696 3.168l1.368-2.952c-2.016-1.368-4.32-2.448-6.984-3.312-2.736-.792-5.472-1.224-8.208-1.224-4.032 0-7.344.648-10.008 1.8-2.664 1.224-4.608 2.88-5.904 4.896-1.296 2.016-1.944 4.248-1.944 6.696 0 3.024.72 5.472 2.304 7.272 1.584 1.8 3.456 3.096 5.688 3.96 2.232.864 5.184 1.8 8.928 2.664 3.24.792 5.832 1.512 7.776 2.232 1.872.72 3.528 1.8 4.824 3.096 1.296 1.368 1.944 3.168 1.944 5.4 0 2.952-1.224 5.328-3.672 7.128-2.448 1.872-6.12 2.736-10.872 2.736-3.312 0-6.48-.576-9.504-1.728-3.024-1.152-5.4-2.736-7.128-4.608l-1.656 2.736c1.872 2.016 4.464 3.672 7.776 4.968z" style="line-height:1;font-variant-ligatures:none;text-align:center" transform="matrix(1.4 0 0 1.4 -170.5595 419.28)"/>
    </g>
</svg>