<svg width="765" height="80" xmlns="http://www.w3.org/2000/svg">

 <g>
  <title>Layer 1</title>
  <g id="svg_1" text-anchor="middle" font-weight="300" font-size="72" font-family="Montserrat Light Alt1">
   <path id="svg_2" d="m69.63176,75.28l5.04,0l-0.1008,-70.56l-4.2336,0l-31.5504,54.5328l-31.5504,-54.5328l-4.3344,0l0,70.56l5.04,0l0,-60.1776l29.5344,50.8032l2.52,0l29.5344,-51.0048l0.1008,60.3792z" fill="#3763d7"/>
   <path id="svg_3" d="m114.32762,68.0224c4.9392,5.2416 11.8944,7.7616 20.8656,7.7616c8.8704,0 15.8256,-2.52 20.8656,-7.7616c4.9392,-5.1408 7.4592,-12.7008 7.4592,-22.68l0,-40.6224l-5.1408,0l0,40.4208c0,8.6688 -2.016,15.2208 -5.9472,19.4544c-4.032,4.3344 -9.6768,6.4512 -17.136,6.4512c-7.56,0 -13.3056,-2.1168 -17.2368,-6.4512c-4.032,-4.2336 -5.9472,-10.7856 -5.9472,-19.4544l0,-40.4208l-5.1408,0l0,40.6224c0,9.9792 2.4192,17.5392 7.3584,22.68z" fill="#376fd2"/>
   <path id="svg_4" d="m199.63488,73.1632c4.6368,1.8144 9.576,2.6208 14.8176,2.6208c5.544,0 10.2816,-0.8064 14.112,-2.52c3.8304,-1.6128 6.6528,-3.9312 8.4672,-6.7536c1.8144,-2.8224 2.8224,-5.9472 2.8224,-9.3744c0,-4.1328 -1.1088,-7.4592 -3.3264,-9.8784c-2.2176,-2.4192 -4.8384,-4.3344 -7.8624,-5.544c-3.1248,-1.2096 -7.2576,-2.4192 -12.3984,-3.7296c-4.6368,-1.1088 -8.3664,-2.2176 -10.9872,-3.2256c-2.7216,-1.008 -4.9392,-2.4192 -6.7536,-4.3344c-1.8144,-1.8144 -2.7216,-4.3344 -2.7216,-7.56c0,-4.1328 1.6128,-7.56 5.04,-10.1808c3.3264,-2.6208 8.2656,-3.9312 14.8176,-3.9312c3.2256,0 6.552,0.504 9.9792,1.512c3.4272,1.008 6.552,2.52 9.3744,4.4352l1.9152,-4.1328c-2.8224,-1.9152 -6.048,-3.4272 -9.7776,-4.6368c-3.8304,-1.1088 -7.6608,-1.7136 -11.4912,-1.7136c-5.6448,0 -10.2816,0.9072 -14.0112,2.52c-3.7296,1.7136 -6.4512,4.032 -8.2656,6.8544c-1.8144,2.8224 -2.7216,5.9472 -2.7216,9.3744c0,4.2336 1.008,7.6608 3.2256,10.1808c2.2176,2.52 4.8384,4.3344 7.9632,5.544c3.1248,1.2096 7.2576,2.52 12.4992,3.7296c4.536,1.1088 8.1648,2.1168 10.8864,3.1248c2.6208,1.008 4.9392,2.52 6.7536,4.3344c1.8144,1.9152 2.7216,4.4352 2.7216,7.56c0,4.1328 -1.7136,7.4592 -5.1408,9.9792c-3.4272,2.6208 -8.568,3.8304 -15.2208,3.8304c-4.6368,0 -9.072,-0.8064 -13.3056,-2.4192c-4.2336,-1.6128 -7.56,-3.8304 -9.9792,-6.4512l-2.3184,3.8304c2.6208,2.8224 6.2496,5.1408 10.8864,6.9552z" fill="#377bcd"/>
   <path id="svg_5" d="m278.2531,9.3568l0,65.9232l5.1408,0l0,-65.9232l25.4016,0l0,-4.6368l-55.944,0l0,4.6368l25.4016,0z" fill="#3887c8"/>
   <path id="svg_6" d="m375.50831,37.1776l-45.6624,0l0,4.536l45.6624,0l0,-4.536zm0,-32.4576l-45.6624,0l0,4.6368l45.6624,0l0,-4.6368zm-45.6624,65.9232l0,4.6368l45.6624,0l0,-4.6368l-45.6624,0z" fill="#3893c3"/>
   <path id="svg_7" d="m442.96922,50.584c5.2416,-1.512 9.3744,-4.1328 12.1968,-7.9632c2.8224,-3.8304 4.3344,-8.4672 4.3344,-14.112c0,-7.3584 -2.52,-13.2048 -7.56,-17.4384c-5.04,-4.2336 -11.9952,-6.3504 -20.8656,-6.3504l-25.3008,0l0,4.6368l25.3008,0c7.4592,0 13.2048,1.7136 17.2368,5.04c3.9312,3.3264 5.9472,8.064 5.9472,14.112c0,6.1488 -2.016,10.8864 -5.9472,14.2128c-4.032,3.3264 -9.7776,4.9392 -17.2368,4.9392l-25.3008,0l0,27.6192l5.1408,0l0,-23.0832l20.16,0c2.016,0 4.3344,-0.1008 6.8544,-0.504l16.8336,23.5872l5.8464,0l-17.64,-24.696z" fill="#389ebe"/>
   <path id="svg_8" d="m486.8209,4.72l0,70.56l45.7632,0l0,-4.6368l-40.6224,0l0,-65.9232l-5.1408,0z" fill="#38aab9"/>
   <path id="svg_9" d="m580.28507,4.72l-5.1408,0l-32.4576,70.56l5.544,0l29.4336,-64.9152l29.5344,64.9152l5.544,0l-32.4576,-70.56z" fill="#39b6b4"/>
   <path id="svg_10" d="m687.37615,44.8384c-2.6208,-3.024 -6.4512,-4.9392 -11.4912,-5.9472c3.528,-1.1088 6.4512,-3.1248 8.568,-5.9472c2.1168,-2.7216 3.2256,-6.048 3.2256,-10.1808c0,-5.7456 -2.2176,-10.1808 -6.4512,-13.3056c-4.2336,-3.1248 -10.1808,-4.7376 -17.8416,-4.7376l-29.4336,0l0,4.4352l29.232,0c6.1488,0 10.8864,1.2096 14.2128,3.6288c3.3264,2.4192 5.04,5.8464 5.04,10.3824c0,4.6368 -1.7136,8.1648 -5.04,10.584c-3.3264,2.4192 -8.064,3.528 -14.2128,3.528l-29.232,0l0,4.4352l31.4496,0c6.7536,0 11.9952,1.2096 15.5232,3.528c3.528,2.4192 5.3424,6.048 5.3424,10.9872c0,5.04 -1.8144,8.6688 -5.3424,11.088c-3.528,2.4192 -8.6688,3.528 -15.5232,3.528l-31.4496,0l0,4.4352l31.4496,0c8.568,0 15.0192,-1.6128 19.4544,-4.8384c4.3344,-3.2256 6.552,-7.7616 6.552,-13.8096c0,-4.7376 -1.4112,-8.6688 -4.032,-11.7936z" fill="#39c2af"/>
   <path id="svg_11" d="m721.87862,73.1632c4.6368,1.8144 9.576,2.6208 14.8176,2.6208c5.544,0 10.2816,-0.8064 14.112,-2.52c3.8304,-1.6128 6.6528,-3.9312 8.4672,-6.7536c1.8144,-2.8224 2.8224,-5.9472 2.8224,-9.3744c0,-4.1328 -1.1088,-7.4592 -3.3264,-9.8784c-2.2176,-2.4192 -4.8384,-4.3344 -7.8624,-5.544c-3.1248,-1.2096 -7.2576,-2.4192 -12.3984,-3.7296c-4.6368,-1.1088 -8.3664,-2.2176 -10.9872,-3.2256c-2.7216,-1.008 -4.9392,-2.4192 -6.7536,-4.3344c-1.8144,-1.8144 -2.7216,-4.3344 -2.7216,-7.56c0,-4.1328 1.6128,-7.56 5.04,-10.1808c3.3264,-2.6208 8.2656,-3.9312 14.8176,-3.9312c3.2256,0 6.552,0.504 9.9792,1.512c3.4272,1.008 6.552,2.52 9.3744,4.4352l1.9152,-4.1328c-2.8224,-1.9152 -6.048,-3.4272 -9.7776,-4.6368c-3.8304,-1.1088 -7.6608,-1.7136 -11.4912,-1.7136c-5.6448,0 -10.2816,0.9072 -14.0112,2.52c-3.7296,1.7136 -6.4512,4.032 -8.2656,6.8544c-1.8144,2.8224 -2.7216,5.9472 -2.7216,9.3744c0,4.2336 1.008,7.6608 3.2256,10.1808c2.2176,2.52 4.8384,4.3344 7.9632,5.544c3.1248,1.2096 7.2576,2.52 12.4992,3.7296c4.536,1.1088 8.1648,2.1168 10.8864,3.1248c2.6208,1.008 4.9392,2.52 6.7536,4.3344c1.8144,1.9152 2.7216,4.4352 2.7216,7.56c0,4.1328 -1.7136,7.4592 -5.1408,9.9792c-3.4272,2.6208 -8.568,3.8304 -15.2208,3.8304c-4.6368,0 -9.072,-0.8064 -13.3056,-2.4192c-4.2336,-1.6128 -7.56,-3.8304 -9.9792,-6.4512l-2.3184,3.8304c2.6208,2.8224 6.2496,5.1408 10.8864,6.9552z" fill="#39ceaa"/>
  </g>
 </g>
</svg>