<svg width="130" height="75" xmlns="http://www.w3.org/2000/svg">
 <g>
  <title>Layer 1</title>
  <g id="svg_1">
   <path id="svg_2" d="m68.1279,72.78l5.04,0l-0.1008,-70.56l-4.2336,0l-31.5504,54.5328l-31.5504,-54.5328l-4.3344,0l0,70.56l5.04,0l0,-60.1776l29.5344,50.8032l2.52,0l29.5344,-51.0048l0.1008,60.3792z" fill="#3763d7"/>
   <path id="svg_3" d="m88.38251,70.6632c4.6368,1.8144 9.576,2.6208 14.8176,2.6208c5.544,0 10.2816,-0.8064 14.112,-2.52c3.8304,-1.6128 6.6528,-3.9312 8.4672,-6.7536c1.8144,-2.8224 2.8224,-5.9472 2.8224,-9.3744c0,-4.1328 -1.1088,-7.4592 -3.3264,-9.8784c-2.2176,-2.4192 -4.8384,-4.3344 -7.8624,-5.544c-3.1248,-1.2096 -7.2576,-2.4192 -12.3984,-3.7296c-4.6368,-1.1088 -8.3664,-2.2176 -10.9872,-3.2256c-2.7216,-1.008 -4.9392,-2.4192 -6.7536,-4.3344c-1.8144,-1.8144 -2.7216,-4.3344 -2.7216,-7.56c0,-4.1328 1.6128,-7.56 5.04,-10.1808c3.3264,-2.6208 8.2656,-3.9312 14.8176,-3.9312c3.2256,0 6.552,0.504 9.9792,1.512c3.4272,1.008 6.552,2.52 9.3744,4.4352l1.9152,-4.1328c-2.8224,-1.9152 -6.048,-3.4272 -9.7776,-4.6368c-3.8304,-1.1088 -7.6608,-1.7136 -11.4912,-1.7136c-5.6448,0 -10.2816,0.9072 -14.0112,2.52c-3.7296,1.7136 -6.4512,4.032 -8.2656,6.8544c-1.8144,2.8224 -2.7216,5.9472 -2.7216,9.3744c0,4.2336 1.008,7.6608 3.2256,10.1808c2.2176,2.52 4.8384,4.3344 7.9632,5.544c3.1248,1.2096 7.2576,2.52 12.4992,3.7296c4.536,1.1088 8.1648,2.1168 10.8864,3.1248c2.6208,1.008 4.9392,2.52 6.7536,4.3344c1.8144,1.9152 2.7216,4.4352 2.7216,7.56c0,4.1328 -1.7136,7.4592 -5.1408,9.9792c-3.4272,2.6208 -8.568,3.8304 -15.2208,3.8304c-4.6368,0 -9.072,-0.8064 -13.3056,-2.4192c-4.2336,-1.6128 -7.56,-3.8304 -9.9792,-6.4512l-2.3184,3.8304c2.6208,2.8224 6.2496,5.1408 10.8864,6.9552z" fill="#39ceaa"/>
  </g>
 </g>

</svg>