<svg xmlns="http://www.w3.org/2000/svg" width="64" height="64" viewBox="0 0 64 64" role="img" aria-label="Planaroom">
  <defs>
    <linearGradient id="bg" x1="0" y1="0" x2="1" y2="1">
      <stop offset="0" stop-color="#0b1220"/>
      <stop offset="1" stop-color="#16263f"/>
    </linearGradient>
  </defs>
  <rect width="64" height="64" rx="13" fill="url(#bg)"/>
  <polygon points="13,21 33,11 33,29 13,39" fill="#15233e" stroke="#7dd3fc" stroke-width="2" stroke-linejoin="round"/>
  <polygon points="33,11 53,21 53,39 33,29" fill="#192a48" stroke="#7dd3fc" stroke-width="2" stroke-linejoin="round"/>
  <polygon points="33,29 53,39 33,49 13,39" fill="#1d3050" stroke="#7dd3fc" stroke-width="2" stroke-linejoin="round"/>
  <polygon points="33,30 41,34 33,38 25,34" fill="#fbbf24"/>
  <polygon points="41,34 41,39 33,43 33,38" fill="#b45309"/>
  <polygon points="33,38 33,43 25,39 25,34" fill="#d97706"/>
  <circle cx="13" cy="39" r="2.4" fill="#22d3ee"/>
  <circle cx="53" cy="39" r="2.4" fill="#22d3ee"/>
  <circle cx="33" cy="49" r="2.4" fill="#22d3ee"/>
</svg>
